<?xml version="1.0" encoding="UTF-8"?>
<!DOCTYPE svg PUBLIC "-//W3C//DTD SVG 1.1//EN" "http://www.w3.org/Graphics/SVG/1.1/DTD/svg11.dtd">
<!-- Creator: CorelDRAW -->
<svg xmlns="http://www.w3.org/2000/svg" xml:space="preserve" width="279.2mm" height="279.2mm" style="shape-rendering:geometricPrecision; text-rendering:geometricPrecision; image-rendering:optimizeQuality; fill-rule:evenodd; clip-rule:evenodd"
viewBox="0 0 279.2 279.2"
 xmlns:xlink="http://www.w3.org/1999/xlink">
 <defs>
  <style type="text/css">
   <![CDATA[
    .str1 {stroke:#1F1A17;stroke-width:0.2}
    .str0 {stroke:white;stroke-width:0.2}
    .fil0 {fill:none}
    .fil1 {fill:#1F1A17}
   ]]>
  </style>
 </defs>
 <g id="图层_x0020_1">
  <metadata id="CorelCorpID_0Corel-Layer"/>
  <rect class="fil0 str0" x="0.1" y="0.1" width="279" height="279"/>
  <g id="_335691448">
   <path id="_335691520" class="fil1 str1" d="M82.9157 87.5616c0,0 -9.0274,-68.9795 65.2017,-65.2473 0,0 54.9461,6.8423 47.8964,67.3867 0,0 -8.0864,56.6049 -52.2506,67.8014 0,0 -44.9936,7.6718 -60.8475,-69.9408z"/>
   <path id="_335691472" class="fil1 str1" d="M139.202 192.751c0,0 40.3339,-28.0134 42.0928,-43.7406 0,0 57.2249,2.6865 62.4085,67.5851l0 40.4321 -207.344 0 -0.8294 -41.2614c0,0 -3.5252,-55.5682 61.9958,-66.5574 0,0 2.8568,14.4941 41.6761,43.5422z"/>
  </g>
 </g>
</svg>
